<svg xmlns="http://www.w3.org/2000/svg" version="1.1" xmlns:xlink="http://www.w3.org/1999/xlink" xmlns:svgjs="http://svgjs.dev/svgjs" width="1500" height="1500" viewBox="0 0 1500 1500"><rect width="1500" height="1500" fill="#ffffff"></rect><g transform="matrix(0.6666666666666666,0,0,0.6666666666666666,250.73890779162696,384.9624831309042)"><svg viewBox="0 0 338 247" data-background-color="#ffffff" preserveAspectRatio="xMidYMid meet" height="1096" width="1500" xmlns="http://www.w3.org/2000/svg" xmlns:xlink="http://www.w3.org/1999/xlink"><g id="tight-bounds" transform="matrix(1,0,0,1,-0.24975083356991945,-0.09999999999999432)"><svg viewBox="0 0 338.49950166713984 247.2" height="247.2" width="338.49950166713984"><g><svg viewBox="0 0 395.52 288.8410278847136" height="247.2" width="338.49950166713984"><g transform="matrix(1,0,0,1,0,174.9867883072897)"><svg viewBox="0 0 395.52 113.85423957742391" height="113.85423957742391" width="395.52"><g id="textblocktransform"><svg viewBox="0 0 395.52 113.85423957742391" height="113.85423957742391" width="395.52" id="textblock"><g><svg viewBox="0 0 395.52 74.72267071320181" height="74.72267071320181" width="395.52"><g transform="matrix(1,0,0,1,0,0)"><svg width="395.52" viewBox="2.5 -36.75 199.68 37.35" height="74.72267071320181" data-palette-color="#2d4f8f"><g class="wordmark-text-0" data-fill-palette-color="primary" id="text-0"><path d="M16.45 0.6L16.45 0.6Q12.4 0.6 9.25-1.5 6.1-3.6 4.3-7.48 2.5-11.35 2.5-16.6L2.5-16.6Q2.5-22.2 4.4-26.48 6.3-30.75 9.88-33.18 13.45-35.6 18.5-35.6L18.5-35.6Q21.75-35.6 24.3-34.8 26.85-34 29.1-32.75L29.1-32.75 27.35-28.8Q25.25-29.95 23.08-30.7 20.9-31.45 18.25-31.45L18.25-31.45Q15.1-31.45 12.65-29.78 10.2-28.1 8.78-24.85 7.35-21.6 7.35-16.9L7.35-16.9Q7.35-12.7 8.65-9.73 9.95-6.75 12.25-5.15 14.55-3.55 17.55-3.55L17.55-3.55Q20.35-3.55 22.53-4.73 24.7-5.9 25.95-7.15L25.95-7.15 25.95-14.8 18.7-14.8 18.7-18.55 30.45-18.55 30.45 0 26.25 0 26.25-3.5Q24.5-1.95 22-0.68 19.5 0.6 16.45 0.6ZM42.2 0L37.7 0 37.7-26 42.2-26 42.2 0ZM39.95-30.45L39.95-30.45Q38.65-30.45 37.72-31.4 36.8-32.35 36.8-33.6L36.8-33.6Q36.8-35.05 37.65-35.9 38.5-36.75 39.95-36.75L39.95-36.75Q41.25-36.75 42.17-35.83 43.1-34.9 43.1-33.6L43.1-33.6Q43.1-32.2 42.25-31.33 41.4-30.45 39.95-30.45ZM61.15 0.6L61.15 0.6Q57.45 0.6 54.5-1.13 51.55-2.85 49.87-5.93 48.2-9 48.2-13L48.2-13Q48.2-17.2 49.9-20.25 51.6-23.3 54.55-24.95 57.5-26.6 61.15-26.6L61.15-26.6Q64.8-26.6 67.72-24.95 70.65-23.3 72.37-20.28 74.1-17.25 74.1-13.1L74.1-13.1Q74.1-8.95 72.4-5.88 70.7-2.8 67.77-1.1 64.85 0.6 61.15 0.6ZM61.15-3.4L61.15-3.4Q65.1-3.4 67.3-6.08 69.5-8.75 69.5-13L69.5-13Q69.5-15.6 68.4-17.78 67.3-19.95 65.42-21.28 63.55-22.6 61.15-22.6L61.15-22.6Q57.2-22.6 55-20 52.8-17.4 52.8-13.1L52.8-13.1Q52.8-10.5 53.9-8.28 55-6.05 56.87-4.73 58.75-3.4 61.15-3.4ZM91.74 0L87.04 0 76.59-24.8 80.69-26.5 89.54-5.1 98.39-26.5 102.24-24.8 91.74 0ZM116.69 0.6L116.69 0.6Q113.44 0.6 110.79-1.05 108.14-2.7 106.57-5.73 104.99-8.75 104.99-12.85L104.99-12.85Q104.99-16.75 106.57-19.85 108.14-22.95 110.92-24.78 113.69-26.6 117.29-26.6L117.29-26.6Q119.54-26.6 121.37-25.83 123.19-25.05 124.54-23.9L124.54-23.9 124.54-26 128.64-26 128.64-6.3Q128.64-4.4 129.57-3.83 130.49-3.25 131.59-3.25L131.59-3.25 130.64 0.25Q125.84 0.25 124.84-3.65L124.84-3.65Q123.69-2.05 121.72-0.73 119.74 0.6 116.69 0.6ZM117.69-3.4L117.69-3.4Q119.59-3.4 121.29-4.33 122.99-5.25 124.14-6.65L124.14-6.65 124.14-20.6Q122.79-21.55 121.17-22.13 119.54-22.7 117.74-22.7L117.74-22.7Q115.34-22.7 113.52-21.48 111.69-20.25 110.64-18.07 109.59-15.9 109.59-13L109.59-13Q109.59-10.2 110.64-8.03 111.69-5.85 113.54-4.63 115.39-3.4 117.69-3.4ZM142.09 0L137.59 0 137.59-26 141.94-26 141.94-21.65Q143.34-23.75 145.51-25.18 147.69-26.6 150.69-26.6L150.69-26.6Q155.09-26.6 157.26-23.95 159.44-21.3 159.44-16.95L159.44-16.95 159.44 0 154.94 0 154.94-16.45Q154.94-19.25 153.61-20.95 152.29-22.65 149.94-22.65L149.94-22.65Q147.64-22.65 145.59-21.03 143.54-19.4 142.09-17.2L142.09-17.2 142.09 0ZM171.69 0L167.19 0 167.19-26 171.54-26 171.54-21.65Q172.94-23.75 175.11-25.18 177.29-26.6 180.29-26.6L180.29-26.6Q184.69-26.6 186.86-23.95 189.04-21.3 189.04-16.95L189.04-16.95 189.04 0 184.54 0 184.54-16.45Q184.54-19.25 183.21-20.95 181.89-22.65 179.54-22.65L179.54-22.65Q177.24-22.65 175.19-21.03 173.14-19.4 171.69-17.2L171.69-17.2 171.69 0ZM201.28 0L196.78 0 196.78-26 201.28-26 201.28 0ZM199.03-30.45L199.03-30.45Q197.73-30.45 196.81-31.4 195.88-32.35 195.88-33.6L195.88-33.6Q195.88-35.05 196.73-35.9 197.58-36.75 199.03-36.75L199.03-36.75Q200.33-36.75 201.26-35.83 202.18-34.9 202.18-33.6L202.18-33.6Q202.18-32.2 201.33-31.33 200.48-30.45 199.03-30.45Z" fill="#000000" data-fill-palette-color="primary"></path></g></svg></g></svg></g><g transform="matrix(1,0,0,1,75.54432,92.36289992449164)"><svg viewBox="0 0 244.43135999999998 21.491339652932275" height="21.491339652932275" width="244.43135999999998"><g transform="matrix(1,0,0,1,0,0)"><svg width="244.43135999999998" viewBox="1.05 -37.5 561.7900000000001 49.4" height="21.491339652932275" data-palette-color="#2d4f8f"><path d="M1.05-33.9L1.05-35 27.05-35 27.55-24.6 26.65-24.6Q24.8-30 22.38-31.95 19.95-33.9 15.15-33.9L15.15-33.9 13.75-33.9 13.75-17.65 16-17.65Q18.4-17.65 20-19.4 21.6-21.15 22.2-24.2L22.2-24.2 22.95-24.2 22.95-9.4 22.1-9.4Q21.3-13.15 19.88-14.75 18.45-16.35 16-16.35L16-16.35 13.75-16.35 13.75-1.1 19.95-1.1 19.95 0 1.05 0 1.05-1.1 4-1.1 4-33.9 1.05-33.9ZM57.85-0.9L57.85 0 46.45 0 45.9-3.65Q45.1-1.65 43.52-0.58 41.95 0.5 38.85 0.5L38.85 0.5Q31.1 0.5 31.1-7.85L31.1-7.85 31.1-22.9 28.3-22.9 28.3-23.8 40.4-23.8 40.4-6.65Q40.4-3.65 40.82-2.7 41.25-1.75 42.52-1.75 43.8-1.75 44.8-3.3 45.8-4.85 45.8-7.6L45.8-7.6 45.8-22.9 43.5-22.9 43.5-23.8 55.1-23.8 55.1-0.9 57.85-0.9ZM58.64-36.6L58.64-37.5 70.89-37.5 70.89-0.9 73.69-0.9 73.69 0 58.84 0 58.84-0.9 61.59-0.9 61.59-36.6 58.64-36.6ZM74.44-36.6L74.44-37.5 86.69-37.5 86.69-0.9 89.49-0.9 89.49 0 74.64 0 74.64-0.9 77.39-0.9 77.39-36.6 74.44-36.6ZM101.19 0.5L100.59 0.5 100.59-8.45 101.19-8.45Q102.49-4.1 104.69-2.35 106.89-0.6 110.19-0.6L110.19-0.6Q115.29-0.6 115.29-3.85L115.29-3.85Q115.29-5.25 114.04-5.95L114.04-5.95Q112.09-7.05 109.04-7.65L109.04-7.65Q105.64-8.55 103.34-10.05L103.34-10.05Q100.59-11.85 100.59-15.75 100.59-19.65 102.99-21.98 105.39-24.3 109.39-24.3L109.39-24.3Q111.84-24.3 114.44-23.15L114.44-23.15Q115.39-22.75 115.89-22.75 116.39-22.75 116.74-23.1 117.09-23.45 117.59-24.4L117.59-24.4 118.14-24.4 118.14-16.75 117.54-16.75Q114.99-23.25 109.64-23.25L109.64-23.25Q107.29-23.25 106.14-22.43 104.99-21.6 104.99-20.35L104.99-20.35Q104.99-19.6 105.34-19.18 105.69-18.75 105.89-18.55 106.09-18.35 106.54-18.13 106.99-17.9 107.29-17.78 107.59-17.65 108.21-17.45 108.84-17.25 109.14-17.2L109.14-17.2Q112.54-16.35 114.04-15.73 115.54-15.1 116.89-14.2L116.89-14.2Q119.64-12.3 119.64-8.08 119.64-3.85 117.14-1.68 114.64 0.5 110.29 0.5L110.29 0.5Q107.19 0.5 104.29-0.95L104.29-0.95Q103.69-1.35 103.34-1.35L103.34-1.35Q102.24-1.35 101.19 0.5L101.19 0.5ZM123.14-7.15L123.14-7.15 123.14-22.9 120.39-22.9 120.39-23.8 123.14-23.8 123.14-30.25 132.44-32.55 132.44-23.8 138.94-23.8 138.94-22.9 132.44-22.9 132.44-6.05Q132.44-3.7 132.91-2.6 133.38-1.5 134.88-1.5 136.38-1.5 137.51-3 138.63-4.5 138.99-7.1L138.99-7.1 139.84-7Q139.44-3.55 137.63-1.53 135.84 0.5 131.69 0.5 127.54 0.5 125.34-1.15 123.14-2.8 123.14-7.15ZM152.33-11.75L152.33-11.75 153.78-11.75 153.78-15.6Q153.78-20.35 153.26-21.98 152.73-23.6 151.23-23.6L151.23-23.6Q150.33-23.6 149.61-23.13 148.88-22.65 148.88-21.83 148.88-21 149.18-20.15L149.18-20.15 150.43-20.15Q150.83-19.1 150.83-17.63 150.83-16.15 149.58-15.08 148.33-14 146.43-14L146.43-14Q142.13-14 142.13-18.15L142.13-18.15Q142.13-24.3 152.58-24.3L152.58-24.3Q158.53-24.3 160.81-22.28 163.08-20.25 163.08-14.85L163.08-14.85 163.08-4.7Q163.08-2.1 164.53-2.1L164.53-2.1Q166.23-2.1 166.53-7.25L166.53-7.25 167.28-7.2Q167.08-2.8 165.63-1.15 164.18 0.5 160.88 0.5L160.88 0.5Q154.88 0.5 153.98-3.2L153.98-3.2Q153.33-1.3 152.03-0.4 150.73 0.5 148.23 0.5L148.23 0.5Q140.83 0.5 140.83-5.55L140.83-5.55Q140.83-9.1 143.66-10.43 146.48-11.75 152.33-11.75ZM150.33-5.6Q150.33-3 150.61-2.25 150.88-1.5 151.66-1.5 152.43-1.5 153.11-2.78 153.78-4.05 153.78-6.3L153.78-6.3 153.78-10.95 153.43-10.95Q150.33-10.95 150.33-6.4L150.33-6.4 150.33-5.6ZM181.78-23.4L181.78-23.4Q179.58-23.4 178.63-21 177.68-18.6 177.68-13.05L177.68-13.05 177.68-10.45Q177.68-5.5 178.78-3.35 179.88-1.2 182.83-1.2 185.78-1.2 187.53-3.2 189.28-5.2 189.78-7.75L189.78-7.75 190.68-7.65Q189.73-3.35 187.18-1.45L187.18-1.45Q184.58 0.5 180.03 0.5L180.03 0.5Q174.23 0.5 171.13-2.63 168.03-5.75 168.03-11.78 168.03-17.8 171.56-21.05 175.08-24.3 181.38-24.3L181.38-24.3Q185.83-24.3 188.18-22.58 190.53-20.85 190.53-18.25 190.53-15.65 189.41-14.45 188.28-13.25 186.31-13.25 184.33-13.25 183.13-14.3 181.93-15.35 181.93-17.4L181.93-17.4Q181.93-18.3 182.18-19.2L182.18-19.2 183.83-19.2Q184.18-20.2 184.18-21L184.18-21Q184.18-23.4 181.78-23.4ZM221.68 0L207.78 0 207.78-0.9 210.08-0.9 204.43-12.5 203.48-12.25 203.48-0.9 205.78-0.9 205.78 0 191.43 0 191.43-0.9 194.18-0.9 194.18-36.6 191.23-36.6 191.23-37.5 203.48-37.5 203.48-13.25 204.28-13.55 215.53-22.9 210.83-22.9 210.83-23.8 220.68-23.8 220.68-22.9 217.18-22.9 211.23-17.85 219.88-0.9 221.68-0.9 221.68 0ZM250.37-22.9L248.52-22.9 248.52-23.8 261.42-23.8 261.42-22.9 259.37-22.9 263.87-6.05 268.32-22.9 264.87-22.9 264.87-23.8 271.62-23.8 271.62-22.9 269.52-22.9 263.52 0 256.67 0 252.32-15.35 247.62 0 240.92 0 233.52-22.9 231.27-22.9 231.27-23.8 246.42-23.8 246.42-22.9 243.42-22.9 248.02-5.9 251.62-17.6 250.37-22.9ZM284.52 0.5Q278.07 0.5 274.85-2.83 271.62-6.15 271.62-12.08 271.62-18 275.25-21.15 278.87-24.3 284.47-24.3L284.47-24.3Q295.82-24.3 295.37-12.9L295.37-12.9 281.27-12.9 281.27-10.95Q281.27-6.05 282.52-3.55 283.77-1.05 286.87-1.05L286.87-1.05Q292.67-1.05 294.47-7.25L294.47-7.25 295.37-7.1Q294.42-3.5 291.95-1.5 289.47 0.5 284.52 0.5L284.52 0.5ZM281.32-16.35L281.32-13.9 286.47-13.9 286.47-16.35Q286.47-20.4 286-21.88 285.52-23.35 284.1-23.35 282.67-23.35 282-21.78 281.32-20.2 281.32-16.35L281.32-16.35ZM315.42-13.45Q315.42-18.6 314.92-20.38 314.42-22.15 312.97-22.15 311.52-22.15 310.37-20.35 309.22-18.55 309.22-15.4L309.22-15.4 309.22-6.1Q309.22-3.95 310.09-2.45 310.97-0.95 312.59-0.95 314.22-0.95 314.82-3.15 315.42-5.35 315.42-10.85L315.42-10.85 315.42-13.45ZM297.17-37.5L309.22-37.5 309.22-20Q311.12-24.3 315.72-24.3L315.72-24.3Q325.07-24.3 325.07-11.85L325.07-11.85Q325.07-5.5 322.49-2.5 319.92 0.5 314.77 0.5L314.77 0.5Q312.17 0.5 310.79-0.3 309.42-1.1 308.92-2.95L308.92-2.95 308.57 0 297.17 0 297.17-0.9 299.92-0.9 299.92-36.6 297.17-36.6 297.17-37.5ZM345.71-10.35Q345.71-5.1 346.26-3.38 346.81-1.65 348.29-1.65 349.76-1.65 350.84-2.95 351.91-4.25 351.91-6.8L351.91-6.8 351.91-17.7Q351.91-19.85 351.06-21.35 350.21-22.85 348.56-22.85 346.91-22.85 346.31-20.65 345.71-18.45 345.71-12.95L345.71-12.95 345.71-10.35ZM363.66 0L352.56 0 352.01-3.5Q350.31 0.5 345.11 0.5L345.11 0.5Q340.81 0.5 338.44-2.6 336.06-5.7 336.06-11.85L336.06-11.85Q336.06-24.3 345.96-24.3L345.96-24.3Q350.36-24.3 351.76-21.85L351.76-21.85 351.76-36.6 348.71-36.6 348.71-37.5 361.21-37.5 361.21-0.9 363.66-0.9 363.66 0ZM378.11 0.5Q371.66 0.5 368.44-2.83 365.21-6.15 365.21-12.08 365.21-18 368.84-21.15 372.46-24.3 378.06-24.3L378.06-24.3Q389.41-24.3 388.96-12.9L388.96-12.9 374.86-12.9 374.86-10.95Q374.86-6.05 376.11-3.55 377.36-1.05 380.46-1.05L380.46-1.05Q386.26-1.05 388.06-7.25L388.06-7.25 388.96-7.1Q388.01-3.5 385.54-1.5 383.06 0.5 378.11 0.5L378.11 0.5ZM374.91-16.35L374.91-13.9 380.06-13.9 380.06-16.35Q380.06-20.4 379.59-21.88 379.11-23.35 377.69-23.35 376.26-23.35 375.59-21.78 374.91-20.2 374.91-16.35L374.91-16.35ZM391.06-22.9L389.01-22.9 389.01-23.8 403.96-23.8 403.96-22.9 400.81-22.9 406.81-6.3 412.21-22.9 408.86-22.9 408.86-23.8 415.61-23.8 415.61-22.9 413.41-22.9 406.01 0 400.31 0 391.06-22.9ZM428.01 0.5Q421.56 0.5 418.33-2.83 415.11-6.15 415.11-12.08 415.11-18 418.73-21.15 422.36-24.3 427.96-24.3L427.96-24.3Q439.31-24.3 438.86-12.9L438.86-12.9 424.76-12.9 424.76-10.95Q424.76-6.05 426.01-3.55 427.26-1.05 430.36-1.05L430.36-1.05Q436.16-1.05 437.96-7.25L437.96-7.25 438.86-7.1Q437.91-3.5 435.43-1.5 432.96 0.5 428.01 0.5L428.01 0.5ZM424.81-16.35L424.81-13.9 429.96-13.9 429.96-16.35Q429.96-20.4 429.48-21.88 429.01-23.35 427.58-23.35 426.16-23.35 425.48-21.78 424.81-20.2 424.81-16.35L424.81-16.35ZM440.45-36.6L440.45-37.5 452.7-37.5 452.7-0.9 455.5-0.9 455.5 0 440.65 0 440.65-0.9 443.4-0.9 443.4-36.6 440.45-36.6ZM472.6-9.85L472.6-9.85 472.6-14.1Q472.6-18.95 472.08-21.18 471.55-23.4 469.65-23.4L469.65-23.4Q468.55-23.4 467.88-22.78 467.2-22.15 466.9-20.7L466.9-20.7Q466.45-18.45 466.45-13.85L466.45-13.85 466.45-9.95Q466.45-4.5 466.78-3.4 467.1-2.3 467.45-1.6L467.45-1.6Q468-0.4 469.6-0.4L469.6-0.4Q471.55-0.4 472.15-2.65L472.15-2.65Q472.6-4.25 472.6-9.85ZM469.5 0.5Q463.25 0.5 460.05-2.7 456.85-5.9 456.85-11.88 456.85-17.85 460.28-21.08 463.7-24.3 469.9-24.3 476.1-24.3 479.15-21.33 482.2-18.35 482.2-12.25L482.2-12.25Q482.2 0.5 469.5 0.5L469.5 0.5ZM501.85-13.45Q501.85-18.6 501.35-20.38 500.85-22.15 499.4-22.15 497.95-22.15 496.8-20.28 495.65-18.4 495.65-15.25L495.65-15.25 495.65-6.1Q495.65-3.95 496.5-2.45 497.35-0.95 499-0.95 500.65-0.95 501.25-3.15 501.85-5.35 501.85-10.85L501.85-10.85 501.85-13.45ZM483.7-23.8L495.55-23.8 495.55-19.85Q497.5-24.3 502.45-24.3L502.45-24.3Q506.75-24.3 509.12-21.2 511.5-18.1 511.5-11.8 511.5-5.5 508.92-2.5 506.35 0.5 501.2 0.5L501.2 0.5Q498.8 0.5 497.6-0.1 496.4-0.7 495.65-1.95L495.65-1.95 495.65 11 502.1 11 502.1 11.9 483.6 11.9 483.6 11 486.35 11 486.35-22.9 483.7-22.9 483.7-23.8ZM526.14 0.5Q519.7 0.5 516.47-2.83 513.25-6.15 513.25-12.08 513.25-18 516.87-21.15 520.5-24.3 526.1-24.3L526.1-24.3Q537.45-24.3 537-12.9L537-12.9 522.89-12.9 522.89-10.95Q522.89-6.05 524.14-3.55 525.39-1.05 528.5-1.05L528.5-1.05Q534.29-1.05 536.1-7.25L536.1-7.25 537-7.1Q536.04-3.5 533.57-1.5 531.1 0.5 526.14 0.5L526.14 0.5ZM522.95-16.35L522.95-13.9 528.1-13.9 528.1-16.35Q528.1-20.4 527.62-21.88 527.14-23.35 525.72-23.35 524.29-23.35 523.62-21.78 522.95-20.2 522.95-16.35L522.95-16.35ZM555.49-22.4L555.49-22.4Q553.64-22.4 552.24-20 550.84-17.6 550.84-14.3L550.84-14.3 550.84-0.9 554.39-0.9 554.39 0 538.79 0 538.79-0.9 541.54-0.9 541.54-22.9 538.79-22.9 538.79-23.8 550.84-23.8 550.84-19Q551.49-21.55 553.34-22.93 555.19-24.3 557.54-24.3 559.89-24.3 561.37-22.98 562.84-21.65 562.84-19.23 562.84-16.8 561.74-15.5 560.64-14.2 558.37-14.2 556.09-14.2 555.02-15.7 553.94-17.2 554.74-19.85L554.74-19.85 556.54-19.85Q557.79-22.4 555.49-22.4Z" opacity="1" transform="matrix(1,0,0,1,0,0)" fill="#000000" class="slogan-text-1" data-fill-palette-color="secondary" id="text-1"></path></svg></g></svg></g></svg></g></svg></g><g transform="matrix(1,0,0,1,76.81534733452767,0)"><svg viewBox="0 0 241.88930533094464 157.34655909599985" height="157.34655909599985" width="241.88930533094464"><g><svg xmlns="http://www.w3.org/2000/svg" xmlns:xlink="http://www.w3.org/1999/xlink" version="1.1" x="0" y="0" viewBox="5.9 129.5 89.62475304077105 58.30000000000001" enable-background="new 0 107.3 100 100" xml:space="preserve" height="157.34655909599985" width="241.88930533094464" class="icon-icon-0" data-fill-palette-color="accent" id="icon-0"><path d="M71.8 174.8c0-3-2.3-4.4-5.2-4.4H49.9L43.2 152l0 0c-1-3.2-4-5.6-7.6-5.6-1.3 0-2.5 0.3-3.6 0.9l0 0C17.5 154.5 9.1 168 5.9 187.7l19 0c0.5-8.3 2-18 8.8-23.8l7.8 11.7 0 0c0.9 1.7 2.7 3 4.7 3h20.3C69.6 178.5 71.8 177.7 71.8 174.8z" fill="#000000" data-fill-palette-color="accent"></path><path d="M84.7 187.8H67.5c-1.9 0-3.5-1.6-3.5-3.5s1.6-3.5 3.5-3.5h14.7l6.5-18.5c0.6-1.8 2.6-2.8 4.5-2.1 1.8 0.6 2.8 2.6 2.1 4.5L88 185.5C87.5 186.9 86.2 187.8 84.7 187.8z" fill="#000000" data-fill-palette-color="accent"></path><path fill="#000000" d="M51.7 129.5c-2.5 0-4.8 0.9-6.5 2.4-0.9-1.5-2.5-2.4-4.4-2.4-2.9 0-5.2 2.3-5.2 5.2s2.3 5.2 5.2 5.2c0.3 0 0.6 0 0.9-0.1 0.2 5.4 4.6 9.6 10 9.6 5.5 0 10-4.5 10-10S57.2 129.5 51.7 129.5z" data-fill-palette-color="accent"></path></svg></g></svg></g><g></g></svg></g><defs></defs></svg><rect width="338.49950166713984" height="247.2" fill="none" stroke="none" visibility="hidden"></rect></g></svg></g></svg>